<svg xmlns="http://www.w3.org/2000/svg" viewBox="0 0 543.41 543.41"><defs><style>.cls-1{fill:none;stroke-linecap:round;stroke-width:9px;}.cls-1,.cls-2{stroke:#1d1d1b;stroke-miterlimit:10;}.cls-2{fill:#1d1d1b;}</style></defs><g id="Layer_2" data-name="Layer 2"><g id="Layer_1-2" data-name="Layer 1"><rect class="cls-1" x="69.74" y="69.74" width="403.92" height="403.92" rx="44.45" transform="translate(-112.54 271.7) rotate(-45)"/><path class="cls-2" d="M214.09,229.26c-23-.48-44.79-.45-67.76-.76-9.51,1.62-16,7.84-16,17.38a19.9,19.9,0,0,0,15.84,19.44l55.44.72c5.25,1.06,30.76,6.74,45.36,30.24,14.8,23.84,12.39,56.35-6.48,81.36.72-5.23,2.17-21-7.2-36.72-14.12-23.69-40.71-27-43.92-27.36h-46.8a67.45,67.45,0,0,1-6.48-133.2l79.2.66C214.58,196.64,214.81,213.65,214.09,229.26Z"/><path class="cls-2" d="M206.62,182l-.72,48.24L311.74,353.39l60.48-72.72,1.44,110.16,46.8-44.64L421.9,176a42.7,42.7,0,0,0-27.84,9.84c-21.6,17.42-45.12,50.88-45.12,50.88a530.45,530.45,0,0,1-36.48,46.08c-13.36-16.88-26.82-33.68-40.08-50.64s-26.64-34.08-40.08-50.64A154.15,154.15,0,0,0,206.62,182Z"/><circle class="cls-2" cx="205.94" cy="364.06" r="26.5"/></g></g></svg>